<svg version="1.1" xmlns="http://www.w3.org/2000/svg" xmlns:xlink="http://www.w3.org/1999/xlink" width="676" height="540"><defs/><g><g transform="translate(-54,-30) scale(1,1)"><path fill="#C0C0C0" stroke="none" d="M 71 57 L 716 57 L 716 566 L 71 566" opacity="0.2"/></g><g transform="translate(-54,-30) scale(1,1)"><path fill="#C0C0C0" stroke="none" d="M 71 57 L 81 47 L 726 47 L 716 57" opacity="0.2"/></g><g transform="translate(-54,-30) scale(1,1)"><path fill="#C0C0C0" stroke="none" d="M 726 47 L 716 57 L 716 566 L 726 556" opacity="0.2"/></g><g transform="translate(-54,-30) scale(1,1)"><path fill="#ffffff" stroke="none" d="M 64 50 L 709 50 L 709 559 L 64 559"/></g><g transform="translate(-54,-30) scale(1,1)"><path fill="#ffffff" stroke="none" d="M 64 50 L 74 40 L 719 40 L 709 50"/></g><g transform="translate(-54,-30) scale(1,1)"><path fill="#ffffff" stroke="none" d="M 719 40 L 709 50 L 709 559 L 719 549"/></g><g transform="translate(-54,-30) scale(1,1)"><path fill="none" stroke="#000000" d="M 64 50 L 709 50 L 709 559 L 64 559 L 64 50" stroke-miterlimit="10"/></g><g transform="translate(-54,-30) scale(1,1)"><path fill="none" stroke="#000000" d="M 64 50 L 74 40 L 719 40 L 709 50 L 64 50" stroke-miterlimit="10"/></g><g transform="translate(-54,-30) scale(1,1)"><path fill="none" stroke="#000000" d="M 719 40 L 709 50 L 709 559 L 719 549 L 719 40" stroke-miterlimit="10"/></g><g transform="translate(-54,-30) scale(1,1)"><g><path fill="none" stroke="none"/><text fill="#000000" stroke="none" font-family="Arial" font-size="13px" font-style="normal" font-weight="bold" text-decoration="none" x="362.431396484375" y="69.5">Homeup</text></g></g><g transform="translate(-54,-30) scale(1,1)"><path fill="#C0C0C0" stroke="none" d="M 111 369 L 364 369 L 364 490 L 111 490" opacity="0.2"/></g><g transform="translate(-54,-30) scale(1,1)"><path fill="#C0C0C0" stroke="none" d="M 111 369 L 121 359 L 374 359 L 364 369" opacity="0.2"/></g><g transform="translate(-54,-30) scale(1,1)"><path fill="#C0C0C0" stroke="none" d="M 374 359 L 364 369 L 364 490 L 374 480" opacity="0.2"/></g><g transform="translate(-54,-30) scale(1,1)"><path fill="#ffffff" stroke="none" d="M 104 362 L 357 362 L 357 483 L 104 483"/></g><g transform="translate(-54,-30) scale(1,1)"><path fill="#ffffff" stroke="none" d="M 104 362 L 114 352 L 367 352 L 357 362"/></g><g transform="translate(-54,-30) scale(1,1)"><path fill="#ffffff" stroke="none" d="M 367 352 L 357 362 L 357 483 L 367 473"/></g><g transform="translate(-54,-30) scale(1,1)"><path fill="none" stroke="#000000" d="M 104 362 L 357 362 L 357 483 L 104 483 L 104 362" stroke-miterlimit="10"/></g><g transform="translate(-54,-30) scale(1,1)"><path fill="none" stroke="#000000" d="M 104 362 L 114 352 L 367 352 L 357 362 L 104 362" stroke-miterlimit="10"/></g><g transform="translate(-54,-30) scale(1,1)"><path fill="none" stroke="#000000" d="M 367 352 L 357 362 L 357 483 L 367 473 L 367 352" stroke-miterlimit="10"/></g><g transform="translate(-54,-30) scale(1,1)"><g><path fill="none" stroke="none"/><text fill="#000000" stroke="none" font-family="Arial" font-size="13px" font-style="normal" font-weight="bold" text-decoration="none" x="220.523193359375" y="381.5">test</text></g></g><g transform="translate(-54,-30) scale(1,1)"><path fill="#C0C0C0" stroke="none" d="M 439 201 L 684 201 L 684 526 L 439 526" opacity="0.2"/></g><g transform="translate(-54,-30) scale(1,1)"><path fill="#C0C0C0" stroke="none" d="M 439 201 L 449 191 L 694 191 L 684 201" opacity="0.2"/></g><g transform="translate(-54,-30) scale(1,1)"><path fill="#C0C0C0" stroke="none" d="M 694 191 L 684 201 L 684 526 L 694 516" opacity="0.2"/></g><g transform="translate(-54,-30) scale(1,1)"><path fill="#ffffff" stroke="none" d="M 432 194 L 677 194 L 677 519 L 432 519"/></g><g transform="translate(-54,-30) scale(1,1)"><path fill="#ffffff" stroke="none" d="M 432 194 L 442 184 L 687 184 L 677 194"/></g><g transform="translate(-54,-30) scale(1,1)"><path fill="#ffffff" stroke="none" d="M 687 184 L 677 194 L 677 519 L 687 509"/></g><g transform="translate(-54,-30) scale(1,1)"><path fill="none" stroke="#000000" d="M 432 194 L 677 194 L 677 519 L 432 519 L 432 194" stroke-miterlimit="10"/></g><g transform="translate(-54,-30) scale(1,1)"><path fill="none" stroke="#000000" d="M 432 194 L 442 184 L 687 184 L 677 194 L 432 194" stroke-miterlimit="10"/></g><g transform="translate(-54,-30) scale(1,1)"><path fill="none" stroke="#000000" d="M 687 184 L 677 194 L 677 519 L 687 509 L 687 184" stroke-miterlimit="10"/></g><g transform="translate(-54,-30) scale(1,1)"><g><path fill="none" stroke="none"/><text fill="#000000" stroke="none" font-family="Arial" font-size="13px" font-style="normal" font-weight="bold" text-decoration="none" x="541.27001953125" y="213.5">docs</text></g></g><g transform="translate(-54,-30) scale(1,1)"><path fill="#C0C0C0" stroke="none" d="M 128.0572265625 103 L 155.49722656250003 103 L 167.25722656250002 114.76 L 167.25722656250002 152 L 128.0572265625 152" opacity="0.2"/></g><g transform="translate(-54,-30) scale(1,1)"><path fill="#ffffff" stroke="none" d="M 121.05722656249999 96 L 148.4972265625 96 L 160.25722656250002 107.76 L 160.25722656250002 145 L 121.05722656249999 145"/></g><g transform="translate(-54,-30) scale(1,1)"><path fill="none" stroke="#000000" d="M 121.05722656249999 96 L 148.4972265625 96 L 160.25722656250002 107.76 L 160.25722656250002 145 L 121.05722656249999 145 L 121.05722656249999 96" stroke-miterlimit="10"/></g><g transform="translate(-54,-30) scale(1,1)"><path fill="none" stroke="#000000" d="M 148.4972265625 96 L 148.4972265625 107.76 L 160.25722656250002 107.76 L 148.4972265625 96" stroke-miterlimit="10"/></g><g transform="translate(-54,-30) scale(1,1)"><g><path fill="none" stroke="none"/><text fill="#000000" stroke="none" font-family="Arial" font-size="13px" font-style="normal" font-weight="bold" text-decoration="none" x="111.4072265625" y="164.5">.travis.yml</text></g></g><g transform="translate(-54,-30) scale(1,1)"><path fill="#C0C0C0" stroke="none" d="M 228.0708984375 103 L 255.51089843750003 103 L 267.2708984375 114.76 L 267.2708984375 152 L 228.0708984375 152" opacity="0.2"/></g><g transform="translate(-54,-30) scale(1,1)"><path fill="#ffffff" stroke="none" d="M 221.07089843749998 96 L 248.5108984375 96 L 260.2708984375 107.76000000000002 L 260.2708984375 145 L 221.07089843749998 145"/></g><g transform="translate(-54,-30) scale(1,1)"><path fill="none" stroke="#000000" d="M 221.07089843749998 96 L 248.5108984375 96 L 260.2708984375 107.76000000000002 L 260.2708984375 145 L 221.07089843749998 145 L 221.07089843749998 96" stroke-miterlimit="10"/></g><g transform="translate(-54,-30) scale(1,1)"><path fill="none" stroke="#000000" d="M 248.5108984375 96 L 248.5108984375 107.76000000000002 L 260.2708984375 107.76000000000002 L 248.5108984375 96" stroke-miterlimit="10"/></g><g transform="translate(-54,-30) scale(1,1)"><g><path fill="none" stroke="none"/><text fill="#000000" stroke="none" font-family="Arial" font-size="13px" font-style="normal" font-weight="bold" text-decoration="none" x="212.85546875" y="164.5">LICENSE</text></g></g><g transform="translate(-54,-30) scale(1,1)"><path fill="#C0C0C0" stroke="none" d="M 410.2681640625 103 L 437.7081640625 103 L 449.46816406249997 114.75999999999999 L 449.46816406249997 152 L 410.2681640625 152" opacity="0.2"/></g><g transform="translate(-54,-30) scale(1,1)"><path fill="#ffffff" stroke="none" d="M 403.2681640625 96 L 430.70816406250003 96 L 442.4681640625 107.76000000000002 L 442.4681640625 145 L 403.2681640625 145"/></g><g transform="translate(-54,-30) scale(1,1)"><path fill="none" stroke="#000000" d="M 403.2681640625 96 L 430.70816406250003 96 L 442.4681640625 107.76000000000002 L 442.4681640625 145 L 403.2681640625 145 L 403.2681640625 96" stroke-miterlimit="10"/></g><g transform="translate(-54,-30) scale(1,1)"><path fill="none" stroke="#000000" d="M 430.70816406250003 96 L 430.70816406250003 107.76000000000002 L 442.4681640625 107.76000000000002 L 430.70816406250003 96" stroke-miterlimit="10"/></g><g transform="translate(-54,-30) scale(1,1)"><g><path fill="none" stroke="none"/><text fill="#000000" stroke="none" font-family="Arial" font-size="13px" font-style="normal" font-weight="bold" text-decoration="none" x="400.8291015625" y="164.5">index.js</text></g></g><g transform="translate(-54,-30) scale(1,1)"><path fill="#C0C0C0" stroke="none" d="M 169.08359375 207 L 196.52359375000003 207 L 208.28359375000002 218.76 L 208.28359375000002 256 L 169.08359375 256" opacity="0.2"/></g><g transform="translate(-54,-30) scale(1,1)"><path fill="#ffffff" stroke="none" d="M 162.08359374999998 200 L 189.52359375 200 L 201.28359375000002 211.76000000000002 L 201.28359375000002 249 L 162.08359374999998 249"/></g><g transform="translate(-54,-30) scale(1,1)"><path fill="none" stroke="#000000" d="M 162.08359374999998 200 L 189.52359375 200 L 201.28359375000002 211.76000000000002 L 201.28359375000002 249 L 162.08359374999998 249 L 162.08359374999998 200" stroke-miterlimit="10"/></g><g transform="translate(-54,-30) scale(1,1)"><path fill="none" stroke="#000000" d="M 189.52359375 200 L 189.52359375 211.76000000000002 L 201.28359375000002 211.76000000000002 L 189.52359375 200" stroke-miterlimit="10"/></g><g transform="translate(-54,-30) scale(1,1)"><g><path fill="none" stroke="none"/><text fill="#000000" stroke="none" font-family="Arial" font-size="13px" font-style="normal" font-weight="bold" text-decoration="none" x="143.378662109375" y="268.5">package.json</text></g></g><g transform="translate(-54,-30) scale(1,1)"><path fill="#C0C0C0" stroke="none" d="M 287.6236328125 215 L 315.0636328125 215 L 326.82363281249997 226.76 L 326.82363281249997 264 L 287.6236328125 264" opacity="0.2"/></g><g transform="translate(-54,-30) scale(1,1)"><path fill="#ffffff" stroke="none" d="M 280.6236328125 208 L 308.06363281250003 208 L 319.8236328125 219.76000000000002 L 319.8236328125 257 L 280.6236328125 257"/></g><g transform="translate(-54,-30) scale(1,1)"><path fill="none" stroke="#000000" d="M 280.6236328125 208 L 308.06363281250003 208 L 319.8236328125 219.76000000000002 L 319.8236328125 257 L 280.6236328125 257 L 280.6236328125 208" stroke-miterlimit="10"/></g><g transform="translate(-54,-30) scale(1,1)"><path fill="none" stroke="#000000" d="M 308.06363281250003 208 L 308.06363281250003 219.76000000000002 L 319.8236328125 219.76000000000002 L 308.06363281250003 208" stroke-miterlimit="10"/></g><g transform="translate(-54,-30) scale(1,1)"><g><path fill="none" stroke="none"/><text fill="#000000" stroke="none" font-family="Arial" font-size="13px" font-style="normal" font-weight="bold" text-decoration="none" x="261.5791015625" y="276.5">README.md</text></g></g><g transform="translate(-54,-30) scale(1,1)"><path fill="#C0C0C0" stroke="none" d="M 144.403173828125 407 L 171.84317382812503 407 L 183.60317382812502 418.76 L 183.60317382812502 456 L 144.403173828125 456" opacity="0.2"/></g><g transform="translate(-54,-30) scale(1,1)"><path fill="#ffffff" stroke="none" d="M 137.40317382812498 400 L 164.843173828125 400 L 176.60317382812502 411.76 L 176.60317382812502 449 L 137.40317382812498 449"/></g><g transform="translate(-54,-30) scale(1,1)"><path fill="none" stroke="#000000" d="M 137.40317382812498 400 L 164.843173828125 400 L 176.60317382812502 411.76 L 176.60317382812502 449 L 137.40317382812498 449 L 137.40317382812498 400" stroke-miterlimit="10"/></g><g transform="translate(-54,-30) scale(1,1)"><path fill="none" stroke="#000000" d="M 164.843173828125 400 L 164.843173828125 411.76 L 176.60317382812502 411.76 L 164.843173828125 400" stroke-miterlimit="10"/></g><g transform="translate(-54,-30) scale(1,1)"><g><path fill="none" stroke="none"/><text fill="#000000" stroke="none" font-family="Arial" font-size="13px" font-style="normal" font-weight="bold" text-decoration="none" x="127.378662109375" y="468.5">index.html</text></g></g><g transform="translate(-54,-30) scale(1,1)"><path fill="#C0C0C0" stroke="none" d="M 274.2681640625 399 L 301.7081640625 399 L 313.46816406249997 410.76 L 313.46816406249997 448 L 274.2681640625 448" opacity="0.2"/></g><g transform="translate(-54,-30) scale(1,1)"><path fill="#ffffff" stroke="none" d="M 267.2681640625 392 L 294.70816406250003 392 L 306.4681640625 403.76 L 306.4681640625 441 L 267.2681640625 441"/></g><g transform="translate(-54,-30) scale(1,1)"><path fill="none" stroke="#000000" d="M 267.2681640625 392 L 294.70816406250003 392 L 306.4681640625 403.76 L 306.4681640625 441 L 267.2681640625 441 L 267.2681640625 392" stroke-miterlimit="10"/></g><g transform="translate(-54,-30) scale(1,1)"><path fill="none" stroke="#000000" d="M 294.70816406250003 392 L 294.70816406250003 403.76 L 306.4681640625 403.76 L 294.70816406250003 392" stroke-miterlimit="10"/></g><g transform="translate(-54,-30) scale(1,1)"><g><path fill="none" stroke="none"/><text fill="#000000" stroke="none" font-family="Arial" font-size="13px" font-style="normal" font-weight="bold" text-decoration="none" x="269.891357421875" y="460.5">test.js</text></g></g><g transform="translate(-54,-30) scale(1,1)"><path fill="#C0C0C0" stroke="none" d="M 472.702734375 223 L 500.142734375 223 L 511.90273437499997 234.76 L 511.90273437499997 272 L 472.702734375 272" opacity="0.2"/></g><g transform="translate(-54,-30) scale(1,1)"><path fill="#ffffff" stroke="none" d="M 465.702734375 216 L 493.14273437500003 216 L 504.902734375 227.76000000000002 L 504.902734375 265 L 465.702734375 265"/></g><g transform="translate(-54,-30) scale(1,1)"><path fill="none" stroke="#000000" d="M 465.702734375 216 L 493.14273437500003 216 L 504.902734375 227.76000000000002 L 504.902734375 265 L 465.702734375 265 L 465.702734375 216" stroke-miterlimit="10"/></g><g transform="translate(-54,-30) scale(1,1)"><path fill="none" stroke="#000000" d="M 493.14273437500003 216 L 493.14273437500003 227.76000000000002 L 504.902734375 227.76000000000002 L 493.14273437500003 216" stroke-miterlimit="10"/></g><g transform="translate(-54,-30) scale(1,1)"><g><path fill="none" stroke="none"/><text fill="#000000" stroke="none" font-family="Arial" font-size="13px" font-style="normal" font-weight="bold" text-decoration="none" x="447.727783203125" y="284.5">homeup.html</text></g></g><g transform="translate(-54,-30) scale(1,1)"><path fill="#C0C0C0" stroke="none" d="M 472.403173828125 303 L 499.843173828125 303 L 511.60317382812497 314.76 L 511.60317382812497 352 L 472.403173828125 352" opacity="0.2"/></g><g transform="translate(-54,-30) scale(1,1)"><path fill="#ffffff" stroke="none" d="M 465.403173828125 296 L 492.84317382812503 296 L 504.603173828125 307.76 L 504.603173828125 345 L 465.403173828125 345"/></g><g transform="translate(-54,-30) scale(1,1)"><path fill="none" stroke="#000000" d="M 465.403173828125 296 L 492.84317382812503 296 L 504.603173828125 307.76 L 504.603173828125 345 L 465.403173828125 345 L 465.403173828125 296" stroke-miterlimit="10"/></g><g transform="translate(-54,-30) scale(1,1)"><path fill="none" stroke="#000000" d="M 492.84317382812503 296 L 492.84317382812503 307.76 L 504.603173828125 307.76 L 492.84317382812503 296" stroke-miterlimit="10"/></g><g transform="translate(-54,-30) scale(1,1)"><g><path fill="none" stroke="none"/><text fill="#000000" stroke="none" font-family="Arial" font-size="13px" font-style="normal" font-weight="bold" text-decoration="none" x="455.378662109375" y="364.5">index.html</text></g></g><g transform="translate(-54,-30) scale(1,1)"><path fill="#C0C0C0" stroke="none" d="M 477.883154296875 415 L 505.323154296875 415 L 517.0831542968749 426.76 L 517.0831542968749 464 L 477.883154296875 464" opacity="0.2"/></g><g transform="translate(-54,-30) scale(1,1)"><path fill="#ffffff" stroke="none" d="M 470.883154296875 408 L 498.32315429687503 408 L 510.083154296875 419.76 L 510.083154296875 457 L 470.883154296875 457"/></g><g transform="translate(-54,-30) scale(1,1)"><path fill="none" stroke="#000000" d="M 470.883154296875 408 L 498.32315429687503 408 L 510.083154296875 419.76 L 510.083154296875 457 L 470.883154296875 457 L 470.883154296875 408" stroke-miterlimit="10"/></g><g transform="translate(-54,-30) scale(1,1)"><path fill="none" stroke="#000000" d="M 498.32315429687503 408 L 498.32315429687503 419.76 L 510.083154296875 419.76 L 498.32315429687503 408" stroke-miterlimit="10"/></g><g transform="translate(-54,-30) scale(1,1)"><g><path fill="none" stroke="none"/><text fill="#000000" stroke="none" font-family="Arial" font-size="13px" font-style="normal" font-weight="bold" text-decoration="none" x="468.444091796875" y="476.5">index.js</text></g></g><g transform="translate(-54,-30) scale(1,1)"><path fill="#C0C0C0" stroke="none" d="M 591 337 L 641.630859375 337 L 641.630859375 370 L 591 370" opacity="0.2"/></g><g transform="translate(-54,-30) scale(1,1)"><path fill="#C0C0C0" stroke="none" d="M 591 337 L 601 327 L 651.630859375 327 L 641.630859375 337" opacity="0.2"/></g><g transform="translate(-54,-30) scale(1,1)"><path fill="#C0C0C0" stroke="none" d="M 651.630859375 327 L 641.630859375 337 L 641.630859375 370 L 651.630859375 360" opacity="0.2"/></g><g transform="translate(-54,-30) scale(1,1)"><path fill="#ffffff" stroke="none" d="M 584 330 L 634.630859375 330 L 634.630859375 363 L 584 363"/></g><g transform="translate(-54,-30) scale(1,1)"><path fill="#ffffff" stroke="none" d="M 584 330 L 594 320 L 644.630859375 320 L 634.630859375 330"/></g><g transform="translate(-54,-30) scale(1,1)"><path fill="#ffffff" stroke="none" d="M 644.630859375 320 L 634.630859375 330 L 634.630859375 363 L 644.630859375 353"/></g><g transform="translate(-54,-30) scale(1,1)"><path fill="none" stroke="#000000" d="M 584 330 L 634.630859375 330 L 634.630859375 363 L 584 363 L 584 330" stroke-miterlimit="10"/></g><g transform="translate(-54,-30) scale(1,1)"><path fill="none" stroke="#000000" d="M 584 330 L 594 320 L 644.630859375 320 L 634.630859375 330 L 584 330" stroke-miterlimit="10"/></g><g transform="translate(-54,-30) scale(1,1)"><path fill="none" stroke="#000000" d="M 644.630859375 320 L 634.630859375 330 L 634.630859375 363 L 644.630859375 353 L 644.630859375 320" stroke-miterlimit="10"/></g><g transform="translate(-54,-30) scale(1,1)"><g><path fill="none" stroke="none"/><text fill="#000000" stroke="none" font-family="Arial" font-size="13px" font-style="normal" font-weight="bold" text-decoration="none" x="591.035888671875" y="349.5">scripts</text></g></g><g transform="translate(-54,-30) scale(1,1)"><path fill="#C0C0C0" stroke="none" d="M 583 425 L 630.72998046875 425 L 630.72998046875 458 L 583 458" opacity="0.2"/></g><g transform="translate(-54,-30) scale(1,1)"><path fill="#C0C0C0" stroke="none" d="M 583 425 L 593 415 L 640.72998046875 415 L 630.72998046875 425" opacity="0.2"/></g><g transform="translate(-54,-30) scale(1,1)"><path fill="#C0C0C0" stroke="none" d="M 640.72998046875 415 L 630.72998046875 425 L 630.72998046875 458 L 640.72998046875 448" opacity="0.2"/></g><g transform="translate(-54,-30) scale(1,1)"><path fill="#ffffff" stroke="none" d="M 576 418 L 623.72998046875 418 L 623.72998046875 451 L 576 451"/></g><g transform="translate(-54,-30) scale(1,1)"><path fill="#ffffff" stroke="none" d="M 576 418 L 586 408 L 633.72998046875 408 L 623.72998046875 418"/></g><g transform="translate(-54,-30) scale(1,1)"><path fill="#ffffff" stroke="none" d="M 633.72998046875 408 L 623.72998046875 418 L 623.72998046875 451 L 633.72998046875 441"/></g><g transform="translate(-54,-30) scale(1,1)"><path fill="none" stroke="#000000" d="M 576 418 L 623.72998046875 418 L 623.72998046875 451 L 576 451 L 576 418" stroke-miterlimit="10"/></g><g transform="translate(-54,-30) scale(1,1)"><path fill="none" stroke="#000000" d="M 576 418 L 586 408 L 633.72998046875 408 L 623.72998046875 418 L 576 418" stroke-miterlimit="10"/></g><g transform="translate(-54,-30) scale(1,1)"><path fill="none" stroke="#000000" d="M 633.72998046875 408 L 623.72998046875 418 L 623.72998046875 451 L 633.72998046875 441 L 633.72998046875 408" stroke-miterlimit="10"/></g><g transform="translate(-54,-30) scale(1,1)"><g><path fill="none" stroke="none"/><text fill="#000000" stroke="none" font-family="Arial" font-size="13px" font-style="normal" font-weight="bold" text-decoration="none" x="583.75" y="437.5">styles</text></g></g><g transform="translate(-54,-30) scale(1,1)"><path fill="#C0C0C0" stroke="none" d="M 591 241 L 638.72998046875 241 L 638.72998046875 274 L 591 274" opacity="0.2"/></g><g transform="translate(-54,-30) scale(1,1)"><path fill="#C0C0C0" stroke="none" d="M 591 241 L 601 231 L 648.72998046875 231 L 638.72998046875 241" opacity="0.2"/></g><g transform="translate(-54,-30) scale(1,1)"><path fill="#C0C0C0" stroke="none" d="M 648.72998046875 231 L 638.72998046875 241 L 638.72998046875 274 L 648.72998046875 264" opacity="0.2"/></g><g transform="translate(-54,-30) scale(1,1)"><path fill="#ffffff" stroke="none" d="M 584 234 L 631.72998046875 234 L 631.72998046875 267 L 584 267"/></g><g transform="translate(-54,-30) scale(1,1)"><path fill="#ffffff" stroke="none" d="M 584 234 L 594 224 L 641.72998046875 224 L 631.72998046875 234"/></g><g transform="translate(-54,-30) scale(1,1)"><path fill="#ffffff" stroke="none" d="M 641.72998046875 224 L 631.72998046875 234 L 631.72998046875 267 L 641.72998046875 257"/></g><g transform="translate(-54,-30) scale(1,1)"><path fill="none" stroke="#000000" d="M 584 234 L 631.72998046875 234 L 631.72998046875 267 L 584 267 L 584 234" stroke-miterlimit="10"/></g><g transform="translate(-54,-30) scale(1,1)"><path fill="none" stroke="#000000" d="M 584 234 L 594 224 L 641.72998046875 224 L 631.72998046875 234 L 584 234" stroke-miterlimit="10"/></g><g transform="translate(-54,-30) scale(1,1)"><path fill="none" stroke="#000000" d="M 641.72998046875 224 L 631.72998046875 234 L 631.72998046875 267 L 641.72998046875 257 L 641.72998046875 224" stroke-miterlimit="10"/></g><g transform="translate(-54,-30) scale(1,1)"><g><path fill="none" stroke="none"/><text fill="#000000" stroke="none" font-family="Arial" font-size="13px" font-style="normal" font-weight="bold" text-decoration="none" x="594.273193359375" y="253.5">fonts</text></g></g></g></svg>